# xmcd
# 
# Track frame offsets:
#     150
#     17205
#     32573
#     51793
#     80663
#     97160
#     122508
#     138900
#     155835
#     170723
#     191173
# 
# Disc length: 2784
# 
# Revision: 9
# Processed by: cddbd v1.5.2PL0 Copyright (c) Steve Scherf et al.
# Submitted via: fre:ac v1.0.31
# 
DISCID=980ade0b
DTITLE=Little Village - Little Village
DYEAR=1992
DGENRE=Rock
TTITLE0=Solar Sex Panel
TTITLE1=The Action
TTITLE2=Inside Job
TTITLE3=Big Love
TTITLE4=Take Another Look
TTITLE5=Do You Want My Job
TTITLE6=Don't Go Away Mad
TTITLE7=Fool Who Knows
TTITLE8=She Runs Hot
TTITLE9=Don't Think About Her When You're Trying To Drive
TTITLE10=Don't Bug Me When I'm Working
EXTD=Label: Reprise Records\n7599-26713-2
EXTT0=
EXTT1=
EXTT2=
EXTT3=
EXTT4=
EXTT5=
EXTT6=
EXTT7=
EXTT8=
EXTT9=
EXTT10=
PLAYORDER=
